<svg width="172" height="172" viewBox="0 0 172 172" fill="none" xmlns="http://www.w3.org/2000/svg">
<path fill-rule="evenodd" clip-rule="evenodd" d="M86 0C38.5045 0 0 38.5045 0 86C0 133.495 38.5045 172 86 172C133.495 172 172 133.495 172 86C172 38.5045 133.495 0 86 0ZM123.277 71.4582C123.964 70.6736 124.486 69.7596 124.814 68.77C125.142 67.7805 125.269 66.7353 125.187 65.6961C125.105 64.6568 124.816 63.6444 124.337 62.7185C123.858 61.7925 123.199 60.9717 122.398 60.3043C121.597 59.6369 120.671 59.1364 119.674 58.8323C118.677 58.5282 117.629 58.4265 116.592 58.5334C115.555 58.6402 114.549 58.9534 113.635 59.4544C112.721 59.9554 111.916 60.6343 111.268 61.4509L77.6502 101.785L60.2547 84.3816C58.7802 82.9575 56.8053 82.1695 54.7554 82.1873C52.7055 82.2051 50.7446 83.0273 49.2951 84.4769C47.8455 85.9264 47.0233 87.8873 47.0055 89.9372C46.9876 91.9871 47.7757 93.962 49.1998 95.4365L72.6544 118.891C73.4226 119.659 74.3423 120.258 75.3549 120.651C76.3675 121.043 77.4508 121.221 78.5357 121.171C79.6207 121.122 80.6835 120.847 81.6563 120.364C82.6292 119.882 83.4908 119.201 84.1862 118.367L123.277 71.4582Z" fill="white"/>
</svg>
