<svg width="20" height="21" viewBox="0 0 20 21" fill="none" xmlns="http://www.w3.org/2000/svg">
<mask id="path-1-outside-1_188_6422" maskUnits="userSpaceOnUse" x="0" y="0.889648" width="20" height="20" fill="black">
<rect fill="white" y="0.889648" width="20" height="20"/>
<path fill-rule="evenodd" clip-rule="evenodd" d="M19 10.8896C19 15.8602 14.9706 19.8896 10 19.8896C5.02944 19.8896 1 15.8602 1 10.8896C1 5.91909 5.02944 1.88965 10 1.88965C14.9706 1.88965 19 5.91909 19 10.8896ZM10.018 11.7355C8.20042 11.7165 6.79206 10.2034 6.78254 8.20508C6.77303 6.31141 8.20994 4.73175 10.018 4.73175C11.826 4.73175 13.2439 6.31141 13.2439 8.20508C13.2439 10.2034 11.826 11.7545 10.018 11.7355ZM4.40868 16.0061C5.50461 14.3627 7.59428 13.2771 10.018 13.2771C12.4321 13.2771 14.5149 14.3541 15.609 15.9867C14.2227 17.5114 12.2231 18.4686 10 18.4686C7.78633 18.4686 5.79433 17.5195 4.40868 16.0061Z"/>
<path d="M10.018 13.2771C7.59428 13.2771 5.50461 14.3627 4.40868 16.0061C5.79433 17.5195 7.78633 18.4686 10 18.4686C12.2231 18.4686 14.2227 17.5114 15.609 15.9867C14.5149 14.3541 12.4321 13.2771 10.018 13.2771Z"/>
<path d="M6.78254 8.20508C6.79206 10.2034 8.20042 11.7165 10.018 11.7355C11.826 11.7545 13.2439 10.2034 13.2439 8.20508C13.2439 6.31141 11.826 4.73175 10.018 4.73175C8.20994 4.73175 6.77303 6.31141 6.78254 8.20508Z"/>
</mask>
<path fill-rule="evenodd" clip-rule="evenodd" d="M19 10.8896C19 15.8602 14.9706 19.8896 10 19.8896C5.02944 19.8896 1 15.8602 1 10.8896C1 5.91909 5.02944 1.88965 10 1.88965C14.9706 1.88965 19 5.91909 19 10.8896ZM10.018 11.7355C8.20042 11.7165 6.79206 10.2034 6.78254 8.20508C6.77303 6.31141 8.20994 4.73175 10.018 4.73175C11.826 4.73175 13.2439 6.31141 13.2439 8.20508C13.2439 10.2034 11.826 11.7545 10.018 11.7355ZM4.40868 16.0061C5.50461 14.3627 7.59428 13.2771 10.018 13.2771C12.4321 13.2771 14.5149 14.3541 15.609 15.9867C14.2227 17.5114 12.2231 18.4686 10 18.4686C7.78633 18.4686 5.79433 17.5195 4.40868 16.0061Z" fill="#040404"/>
<path d="M10.018 13.2771C7.59428 13.2771 5.50461 14.3627 4.40868 16.0061C5.79433 17.5195 7.78633 18.4686 10 18.4686C12.2231 18.4686 14.2227 17.5114 15.609 15.9867C14.5149 14.3541 12.4321 13.2771 10.018 13.2771Z" fill="white"/>
<path d="M6.78254 8.20508C6.79206 10.2034 8.20042 11.7165 10.018 11.7355C11.826 11.7545 13.2439 10.2034 13.2439 8.20508C13.2439 6.31141 11.826 4.73175 10.018 4.73175C8.20994 4.73175 6.77303 6.31141 6.78254 8.20508Z" fill="white"/>
<path d="M6.78254 8.20508L7.28254 8.2027L7.28254 8.20257L6.78254 8.20508ZM10.018 11.7355L10.0232 11.2355H10.0232L10.018 11.7355ZM4.40868 16.0061L3.99269 15.7287L3.77527 16.0547L4.0399 16.3438L4.40868 16.0061ZM15.609 15.9867L15.979 16.3231L16.2423 16.0335L16.0244 15.7083L15.609 15.9867ZM6.28255 8.20747C6.29319 10.4424 7.88683 12.2132 10.0127 12.2355L10.0232 11.2355C8.51402 11.2197 7.29093 9.96449 7.28254 8.2027L6.28255 8.20747ZM10.018 4.23175C7.89885 4.23175 6.27182 6.07202 6.28255 8.2076L7.28254 8.20257C7.27423 6.55079 8.52103 5.23175 10.018 5.23175V4.23175ZM13.7439 8.20508C13.7439 6.07585 12.1411 4.23175 10.018 4.23175V5.23175C11.511 5.23175 12.7439 6.54696 12.7439 8.20508H13.7439ZM10.0127 12.2355C12.1453 12.2579 13.7439 10.4329 13.7439 8.20508H12.7439C12.7439 9.97402 11.5067 11.2512 10.0232 11.2355L10.0127 12.2355ZM10.018 12.7771C7.45149 12.7771 5.19411 13.9271 3.99269 15.7287L4.82466 16.2835C5.81511 14.7983 7.73706 13.7771 10.018 13.7771V12.7771ZM16.0244 15.7083C14.8244 13.9179 12.5741 12.7771 10.018 12.7771V13.7771C12.2901 13.7771 14.2053 14.7904 15.1937 16.2651L16.0244 15.7083ZM10 18.9686C12.3698 18.9686 14.5019 17.9476 15.979 16.3231L15.2391 15.6503C13.9435 17.0752 12.0764 17.9686 10 17.9686V18.9686ZM4.0399 16.3438C5.51628 17.9563 7.64028 18.9686 10 18.9686V17.9686C7.93238 17.9686 6.07238 17.0828 4.77745 15.6685L4.0399 16.3438ZM10 20.8896C15.5228 20.8896 20 16.4125 20 10.8896H18C18 15.3079 14.4183 18.8896 10 18.8896V20.8896ZM0 10.8896C0 16.4125 4.47715 20.8896 10 20.8896V18.8896C5.58172 18.8896 2 15.3079 2 10.8896H0ZM10 0.889648C4.47715 0.889648 0 5.3668 0 10.8896H2C2 6.47137 5.58172 2.88965 10 2.88965V0.889648ZM20 10.8896C20 5.3668 15.5228 0.889648 10 0.889648V2.88965C14.4183 2.88965 18 6.47137 18 10.8896H20Z" fill="#CDCDCD" mask="url(#path-1-outside-1_188_6422)"/>
</svg>
