<svg width="40" height="23" viewBox="0 0 40 23" fill="none" xmlns="http://www.w3.org/2000/svg">
<path d="M3.67045 10.0993V17.7698H0.585227V0.315229H3.60227V6.9033H3.75568C4.0625 6.16466 4.53693 5.58227 5.17898 5.15614C5.8267 4.72432 6.65057 4.50841 7.65057 4.50841C8.55966 4.50841 9.35227 4.69875 10.0284 5.07943C10.7045 5.46012 11.2273 6.01693 11.5966 6.74989C11.9716 7.48284 12.1591 8.37773 12.1591 9.43455V17.7698H9.07386V9.91182C9.07386 9.03114 8.84659 8.34648 8.39205 7.85784C7.94318 7.36352 7.3125 7.11637 6.5 7.11637C5.95455 7.11637 5.46591 7.23568 5.03409 7.47432C4.60795 7.70728 4.27273 8.04534 4.02841 8.48853C3.78977 8.93171 3.67045 9.46864 3.67045 10.0993ZM18.111 18.034C17.2815 18.034 16.5343 17.8863 15.8695 17.5908C15.2105 17.2897 14.6877 16.8465 14.3014 16.2613C13.9207 15.676 13.7303 14.9544 13.7303 14.0965C13.7303 13.3578 13.8667 12.747 14.1394 12.2641C14.4122 11.7811 14.7843 11.3948 15.2559 11.105C15.7275 10.8152 16.2588 10.5965 16.8497 10.4488C17.4463 10.2953 18.0627 10.1845 18.6991 10.1164C19.4661 10.0368 20.0883 9.9658 20.5656 9.9033C21.0428 9.83512 21.3894 9.73284 21.6053 9.59648C21.8269 9.45443 21.9377 9.23568 21.9377 8.94023V8.88909C21.9377 8.24705 21.7474 7.74989 21.3667 7.39762C20.986 7.04534 20.4377 6.86921 19.7218 6.86921C18.9661 6.86921 18.3667 7.03398 17.9235 7.36353C17.486 7.69307 17.1906 8.08227 17.0372 8.53114L14.1565 8.12205C14.3838 7.32659 14.7588 6.66182 15.2815 6.12773C15.8042 5.58796 16.4434 5.18455 17.1991 4.9175C17.9548 4.64478 18.79 4.50841 19.7048 4.50841C20.3355 4.50841 20.9633 4.58228 21.5883 4.73C22.2133 4.87773 22.7843 5.12205 23.3014 5.46296C23.8184 5.79818 24.2332 6.25557 24.5457 6.83512C24.8639 7.41466 25.023 8.13909 25.023 9.00841V17.7698H22.057V15.9715H21.9548C21.7673 16.3351 21.5031 16.676 21.1622 16.9942C20.8269 17.3067 20.4036 17.5595 19.8923 17.7527C19.3866 17.9402 18.7928 18.034 18.111 18.034ZM18.9122 15.7669C19.5315 15.7669 20.0684 15.6448 20.523 15.4005C20.9775 15.1505 21.3269 14.8209 21.5712 14.4118C21.8212 14.0027 21.9462 13.5567 21.9462 13.0738V11.5311C21.8497 11.6107 21.6849 11.6845 21.4519 11.7527C21.2247 11.8209 20.969 11.8806 20.6849 11.9317C20.4008 11.9828 20.1195 12.0283 19.8411 12.0681C19.5627 12.1078 19.3213 12.1419 19.1167 12.1703C18.6565 12.2328 18.2445 12.3351 17.8809 12.4772C17.5173 12.6192 17.2303 12.8181 17.0201 13.0738C16.8099 13.3238 16.7048 13.6476 16.7048 14.0453C16.7048 14.6135 16.9122 15.0425 17.3269 15.3323C17.7417 15.622 18.2701 15.7669 18.9122 15.7669ZM27.1652 22.6789V4.67887H30.1993V6.84364H30.3783C30.5374 6.52546 30.7618 6.18739 31.0516 5.82943C31.3414 5.4658 31.7334 5.15614 32.2277 4.90046C32.722 4.63909 33.3527 4.50841 34.1198 4.50841C35.1311 4.50841 36.0431 4.76693 36.8556 5.28398C37.6738 5.79534 38.3215 6.55387 38.7987 7.55955C39.2817 8.55955 39.5232 9.78682 39.5232 11.2414C39.5232 12.6789 39.2874 13.9005 38.8158 14.9061C38.3442 15.9118 37.7022 16.6789 36.8897 17.2073C36.0772 17.7357 35.1567 17.9999 34.1283 17.9999C33.3783 17.9999 32.7561 17.8749 32.2618 17.6249C31.7675 17.3749 31.3698 17.0738 31.0686 16.7215C30.7732 16.3635 30.5431 16.0255 30.3783 15.7073H30.2505V22.6789H27.1652ZM30.1908 11.2243C30.1908 12.0709 30.3101 12.8124 30.5487 13.4488C30.7931 14.0851 31.1425 14.5823 31.597 14.9402C32.0573 15.2925 32.6141 15.4686 33.2675 15.4686C33.9493 15.4686 34.5203 15.2868 34.9806 14.9232C35.4408 14.5539 35.7874 14.051 36.0203 13.4147C36.259 12.7726 36.3783 12.0425 36.3783 11.2243C36.3783 10.4118 36.2618 9.69023 36.0289 9.05955C35.7959 8.42887 35.4493 7.93455 34.9891 7.57659C34.5289 7.21864 33.955 7.03966 33.2675 7.03966C32.6084 7.03966 32.0487 7.21296 31.5885 7.55955C31.1283 7.90614 30.7789 8.39193 30.5402 9.01693C30.3073 9.64193 30.1908 10.3777 30.1908 11.2243Z" fill="white"/>
</svg>
