<svg width="84" height="33" viewBox="0 0 84 33" fill="none" xmlns="http://www.w3.org/2000/svg">
<path d="M44.1185 17.1064V25.2245H40.8533V6.75136H44.0464V13.7239H44.2087C44.5335 12.9421 45.0356 12.3258 45.7151 11.8748C46.4006 11.4178 47.2726 11.1892 48.3309 11.1892C49.2931 11.1892 50.1319 11.3907 50.8475 11.7936C51.5631 12.1965 52.1164 12.7858 52.5072 13.5615C52.9041 14.3373 53.1026 15.2844 53.1026 16.4029V25.2245H49.8373V16.908C49.8373 15.9759 49.5967 15.2513 49.1157 14.7341C48.6406 14.211 47.9731 13.9494 47.1132 13.9494C46.5359 13.9494 46.0188 14.0757 45.5618 14.3282C45.1108 14.5748 44.756 14.9326 44.4974 15.4016C44.2448 15.8707 44.1185 16.4389 44.1185 17.1064Z" fill="white"/>
<path d="M60.1638 25.5041C59.2859 25.5041 58.4951 25.3478 57.7916 25.0351C57.094 24.7164 56.5408 24.2473 56.1319 23.628C55.729 23.0086 55.5275 22.2449 55.5275 21.3368C55.5275 20.5551 55.6718 19.9087 55.9605 19.3975C56.2491 18.8864 56.643 18.4775 57.1421 18.1708C57.6412 17.8641 58.2035 17.6326 58.8289 17.4762C59.4603 17.3139 60.1127 17.1966 60.7862 17.1245C61.598 17.0403 62.2565 16.9651 62.7616 16.899C63.2668 16.8268 63.6336 16.7186 63.8621 16.5742C64.0966 16.4239 64.2139 16.1924 64.2139 15.8797V15.8256C64.2139 15.1461 64.0124 14.6199 63.6095 14.2471C63.2066 13.8742 62.6263 13.6878 61.8686 13.6878C61.0689 13.6878 60.4344 13.8622 59.9654 14.211C59.5024 14.5598 59.1897 14.9717 59.0273 15.4467L55.9785 15.0138C56.2191 14.1719 56.6159 13.4683 57.1692 12.9031C57.7224 12.3318 58.3989 11.9048 59.1987 11.6222C59.9985 11.3336 60.8824 11.1892 61.8506 11.1892C62.5181 11.1892 63.1826 11.2674 63.844 11.4238C64.5055 11.5801 65.1099 11.8387 65.6571 12.1995C66.2043 12.5543 66.6433 13.0384 66.974 13.6517C67.3108 14.2651 67.4791 15.0318 67.4791 15.9519V25.2245H64.3401V23.3213H64.2319C64.0335 23.7061 63.7538 24.0669 63.393 24.4037C63.0382 24.7344 62.5902 25.002 62.049 25.2065C61.5139 25.4049 60.8855 25.5041 60.1638 25.5041ZM61.0117 23.1048C61.6672 23.1048 62.2355 22.9755 62.7165 22.7169C63.1976 22.4523 63.5674 22.1036 63.826 21.6706C64.0906 21.2376 64.2229 20.7656 64.2229 20.2544V18.6218C64.1207 18.706 63.9463 18.7842 63.6997 18.8563C63.4592 18.9285 63.1886 18.9916 62.8879 19.0457C62.5872 19.0999 62.2896 19.148 61.9949 19.1901C61.7003 19.2322 61.4447 19.2682 61.2282 19.2983C60.7411 19.3645 60.3052 19.4727 59.9203 19.623C59.5354 19.7734 59.2318 19.9838 59.0093 20.2544C58.7868 20.519 58.6755 20.8618 58.6755 21.2827C58.6755 21.8841 58.895 22.3381 59.334 22.6448C59.773 22.9514 60.3322 23.1048 61.0117 23.1048ZM61.9949 9.86329C61.4116 9.86329 60.8794 9.73099 60.3984 9.4664C59.9233 9.1958 59.5445 8.835 59.2618 8.38399C58.9852 7.93299 58.8469 7.42786 58.8469 6.86862C58.8469 6.30937 58.9852 5.79823 59.2618 5.3352C59.5445 4.87217 59.9233 4.50235 60.3984 4.22573C60.8794 3.94911 61.4116 3.81081 61.9949 3.81081C62.5782 3.81081 63.1074 3.94911 63.5825 4.22573C64.0575 4.50235 64.4334 4.87217 64.71 5.3352C64.9866 5.79823 65.1249 6.30937 65.1249 6.86862C65.1249 7.42786 64.9866 7.93299 64.71 8.38399C64.4334 8.835 64.0575 9.1958 63.5825 9.4664C63.1074 9.73099 62.5782 9.86329 61.9949 9.86329ZM61.9949 8.32987C62.4339 8.32987 62.7947 8.18254 63.0773 7.88789C63.366 7.58722 63.5103 7.24746 63.5103 6.86862C63.5103 6.47173 63.366 6.11995 63.0773 5.81327C62.7947 5.50658 62.4339 5.35625 61.9949 5.36226C61.562 5.36226 61.2012 5.5156 60.9125 5.82229C60.6239 6.12296 60.4795 6.47173 60.4795 6.86862C60.4795 7.24746 60.6239 7.58722 60.9125 7.88789C61.2012 8.18856 61.562 8.33589 61.9949 8.32987Z" fill="white"/>
<path d="M70.5084 30.4201V11.3696H73.7196V13.6607H73.909C74.0774 13.324 74.3149 12.9662 74.6216 12.5874C74.9283 12.2025 75.3432 11.8748 75.8664 11.6042C76.3895 11.3276 77.057 11.1892 77.8688 11.1892C78.9392 11.1892 79.9044 11.4629 80.7643 12.0101C81.6302 12.5513 82.3157 13.3541 82.8209 14.4184C83.332 15.4768 83.5876 16.7757 83.5876 18.3151C83.5876 19.8365 83.338 21.1294 82.8389 22.1938C82.3398 23.2581 81.6603 24.0699 80.8004 24.6292C79.9405 25.1884 78.9663 25.4681 77.8779 25.4681C77.0841 25.4681 76.4256 25.3358 75.9025 25.0712C75.3793 24.8066 74.9584 24.4879 74.6396 24.115C74.327 23.7362 74.0834 23.3784 73.909 23.0416H73.7737V30.4201H70.5084ZM73.7106 18.2971C73.7106 19.1931 73.8369 19.9778 74.0894 20.6513C74.348 21.3248 74.7178 21.851 75.1989 22.2298C75.686 22.6027 76.2753 22.7891 76.9668 22.7891C77.6884 22.7891 78.2928 22.5967 78.7799 22.2118C79.267 21.8209 79.6338 21.2887 79.8803 20.6152C80.1329 19.9357 80.2592 19.163 80.2592 18.2971C80.2592 17.4372 80.1359 16.6735 79.8893 16.006C79.6428 15.3385 79.276 14.8153 78.7889 14.4365C78.3018 14.0576 77.6945 13.8682 76.9668 13.8682C76.2693 13.8682 75.677 14.0516 75.1899 14.4184C74.7028 14.7853 74.333 15.2994 74.0804 15.9609C73.8339 16.6223 73.7106 17.4011 73.7106 18.2971Z" fill="white"/>
<g clip-path="url(#clip0_138_14304)">
<path fill-rule="evenodd" clip-rule="evenodd" d="M21.1665 0.0218201C24.4288 0.0218201 26.0596 0.0218201 27.8157 0.576959C29.733 1.27481 31.2429 2.78479 31.9408 4.70204C32.4959 6.45791 32.4959 8.0892 32.4959 11.3513V21.1883C32.4959 24.4506 32.4959 26.0814 31.9408 27.8375C31.2429 29.7548 29.733 31.2647 27.8157 31.9623C26.0596 32.5177 24.4288 32.5177 21.1665 32.5177H11.3294C8.06711 32.5177 6.43609 32.5177 4.68022 31.9623C2.76297 31.2647 1.25299 29.7548 0.555139 27.8375C0 26.0814 0 24.4506 0 21.1883V11.3513C0 8.0892 0 6.45791 0.555139 4.70204C1.25299 2.78479 2.76297 1.27481 4.68022 0.576959C6.43609 0.0218201 8.06711 0.0218201 11.3294 0.0218201H21.1665Z" fill="#FF6F42"/>
<path fill-rule="evenodd" clip-rule="evenodd" d="M21.1665 0.0218201C24.4288 0.0218201 26.0596 0.0218201 27.8157 0.576959C29.733 1.27481 31.2429 2.78479 31.9408 4.70204C32.4959 6.45791 32.4959 8.0892 32.4959 11.3513V21.1883C32.4959 24.4506 32.4959 26.0814 31.9408 27.8375C31.2429 29.7548 29.733 31.2647 27.8157 31.9623C26.0596 32.5177 24.4288 32.5177 21.1665 32.5177H11.3294C8.06711 32.5177 6.43609 32.5177 4.68022 31.9623C2.76297 31.2647 1.25299 29.7548 0.555139 27.8375C0 26.0814 0 24.4506 0 21.1883V11.3513C0 8.0892 0 6.45791 0.555139 4.70204C1.25299 2.78479 2.76297 1.27481 4.68022 0.576959C6.43609 0.0218201 8.06711 0.0218201 11.3294 0.0218201H21.1665Z" fill="url(#paint0_linear_138_14304)" fill-opacity="0.02"/>
<path d="M28.4658 9.21469C30.5711 12.861 26.8073 18.9753 20.0593 22.8713C13.3113 26.7672 6.13434 26.9696 4.02912 23.3232C1.9239 19.6769 5.68763 13.5626 12.4356 9.66667C19.1837 5.7707 26.3606 5.56834 28.4658 9.21469Z" fill="white"/>
</g>
<defs>
<linearGradient id="paint0_linear_138_14304" x1="0" y1="0.0218201" x2="0" y2="32.5177" gradientUnits="userSpaceOnUse">
<stop stop-color="#D3D7DD"/>
<stop offset="1" stop-color="#888C90"/>
</linearGradient>
<clipPath id="clip0_138_14304">
<rect width="32.4959" height="32.4959" fill="white" transform="translate(0 0.0218201)"/>
</clipPath>
</defs>
</svg>
