<svg width="45" height="29" viewBox="0 0 45 29" fill="none" xmlns="http://www.w3.org/2000/svg">
<mask id="path-1-inside-1_1278_80769" fill="white">
<path fill-rule="evenodd" clip-rule="evenodd" d="M4.98435 1.07309C4.98435 1.0009 4.92577 0.942384 4.8535 0.942383L0.980461 0.942383C0.908196 0.942383 0.849613 1.0009 0.849613 1.07309L0.849609 22.8501C0.849609 22.9222 0.908192 22.9808 0.980457 22.9808H4.8535C4.92576 22.9808 4.98434 22.9222 4.98434 22.8501L4.98435 14.4969C4.98435 11.7735 5.59865 9.62863 7.8511 9.62863C10.1036 9.62863 10.5949 11.4867 10.5949 13.5884C10.5949 14.8901 10.581 15.7983 10.5685 16.6136C10.5584 17.2777 10.5491 17.8802 10.5491 18.5837C10.5491 21.5688 13.419 23.3964 16.9001 23.3964C20.1088 23.3964 22.4379 22.282 23.8273 20.7445C23.8871 20.6783 23.9944 20.6871 24.0437 20.7613C25.1896 22.4878 27.5528 23.462 29.5741 23.5086C29.6462 23.5103 29.7042 23.5686 29.7042 23.6406V28.653C29.7042 28.7251 29.7628 28.7837 29.8351 28.7837L33.7081 28.7837C33.7804 28.7837 33.839 28.7251 33.839 28.653V22.987C33.839 22.5607 34.409 22.3352 34.7578 22.5808C35.7593 23.2859 36.9242 23.5281 38.0304 23.5281C41.8656 23.5281 44.6181 20.1776 44.6181 14.9385C44.6181 9.79084 41.9554 6.37936 38.0604 6.37936C36.6355 6.37936 35.4742 6.62261 34.0549 7.70676C33.9675 7.77356 33.839 7.71258 33.839 7.60261V6.87559C33.839 6.8034 33.7804 6.74488 33.7081 6.74488L29.8351 6.74488C29.7628 6.74488 29.7042 6.8034 29.7042 6.87559L29.7042 20.6758C29.7042 20.7587 29.6278 20.8208 29.5471 20.8011C28.2409 20.4824 27.1112 19.6321 27.1112 18.2939V17.5811C27.1112 17.5804 27.1115 17.5798 27.1119 17.5793C27.1124 17.5788 27.1127 17.5782 27.1127 17.5775C27.1127 16.6296 27.1369 15.3974 27.1546 14.5004L27.1546 14.4998L27.1546 14.4995L27.1546 14.4993L27.1546 14.4991L27.1546 14.4967C27.1647 13.9848 27.1726 13.5826 27.1726 13.4056C27.1726 8.35942 24.7837 5.66246 19.2549 6.17454C18.4628 6.24791 16.7294 6.62624 16.1186 6.89188C16.0732 6.91163 16.046 6.95684 16.046 7.00633L16.046 9.37674C16.046 9.46848 16.1382 9.53261 16.2248 9.50225C16.6216 9.36326 17.6114 9.04365 18.5041 8.97392C20.2097 8.8407 23.0379 8.73495 23.0379 12.5527V12.6639C23.0379 12.7475 22.9607 12.8097 22.8788 12.7926C20.3831 12.2707 17.2043 12.3725 14.9296 13.4907C14.8416 13.5339 14.737 13.4714 14.7361 13.3734L14.7297 12.6746C14.7297 8.62346 12.4329 6.24761 8.56779 6.24761C7.73191 6.24761 6.3914 6.50603 5.21421 7.55323C5.12712 7.6307 4.98435 7.57076 4.98435 7.45426L4.98435 1.07309ZM18.1287 20.4787C20.2787 20.4787 23.1577 19.1814 23.1577 15.5627V15.5007C23.1577 15.4377 23.1137 15.3838 23.0515 15.3729C19.7275 14.7928 14.7297 15.518 14.7297 18.2597C14.7297 19.9324 16.6614 20.4787 18.1287 20.4787ZM33.6891 14.9385C33.6891 18.3195 34.7646 20.2994 37.0417 20.2994C39.199 20.2994 40.341 18.1672 40.341 14.969C40.341 11.7707 39.199 9.60808 37.0417 9.60808C34.7646 9.60808 33.6891 11.6489 33.6891 14.9385Z"/>
</mask>
<path fill-rule="evenodd" clip-rule="evenodd" d="M4.98435 1.07309C4.98435 1.0009 4.92577 0.942384 4.8535 0.942383L0.980461 0.942383C0.908196 0.942383 0.849613 1.0009 0.849613 1.07309L0.849609 22.8501C0.849609 22.9222 0.908192 22.9808 0.980457 22.9808H4.8535C4.92576 22.9808 4.98434 22.9222 4.98434 22.8501L4.98435 14.4969C4.98435 11.7735 5.59865 9.62863 7.8511 9.62863C10.1036 9.62863 10.5949 11.4867 10.5949 13.5884C10.5949 14.8901 10.581 15.7983 10.5685 16.6136C10.5584 17.2777 10.5491 17.8802 10.5491 18.5837C10.5491 21.5688 13.419 23.3964 16.9001 23.3964C20.1088 23.3964 22.4379 22.282 23.8273 20.7445C23.8871 20.6783 23.9944 20.6871 24.0437 20.7613C25.1896 22.4878 27.5528 23.462 29.5741 23.5086C29.6462 23.5103 29.7042 23.5686 29.7042 23.6406V28.653C29.7042 28.7251 29.7628 28.7837 29.8351 28.7837L33.7081 28.7837C33.7804 28.7837 33.839 28.7251 33.839 28.653V22.987C33.839 22.5607 34.409 22.3352 34.7578 22.5808C35.7593 23.2859 36.9242 23.5281 38.0304 23.5281C41.8656 23.5281 44.6181 20.1776 44.6181 14.9385C44.6181 9.79084 41.9554 6.37936 38.0604 6.37936C36.6355 6.37936 35.4742 6.62261 34.0549 7.70676C33.9675 7.77356 33.839 7.71258 33.839 7.60261V6.87559C33.839 6.8034 33.7804 6.74488 33.7081 6.74488L29.8351 6.74488C29.7628 6.74488 29.7042 6.8034 29.7042 6.87559L29.7042 20.6758C29.7042 20.7587 29.6278 20.8208 29.5471 20.8011C28.2409 20.4824 27.1112 19.6321 27.1112 18.2939V17.5811C27.1112 17.5804 27.1115 17.5798 27.1119 17.5793C27.1124 17.5788 27.1127 17.5782 27.1127 17.5775C27.1127 16.6296 27.1369 15.3974 27.1546 14.5004L27.1546 14.4998L27.1546 14.4995L27.1546 14.4993L27.1546 14.4991L27.1546 14.4967C27.1647 13.9848 27.1726 13.5826 27.1726 13.4056C27.1726 8.35942 24.7837 5.66246 19.2549 6.17454C18.4628 6.24791 16.7294 6.62624 16.1186 6.89188C16.0732 6.91163 16.046 6.95684 16.046 7.00633L16.046 9.37674C16.046 9.46848 16.1382 9.53261 16.2248 9.50225C16.6216 9.36326 17.6114 9.04365 18.5041 8.97392C20.2097 8.8407 23.0379 8.73495 23.0379 12.5527V12.6639C23.0379 12.7475 22.9607 12.8097 22.8788 12.7926C20.3831 12.2707 17.2043 12.3725 14.9296 13.4907C14.8416 13.5339 14.737 13.4714 14.7361 13.3734L14.7297 12.6746C14.7297 8.62346 12.4329 6.24761 8.56779 6.24761C7.73191 6.24761 6.3914 6.50603 5.21421 7.55323C5.12712 7.6307 4.98435 7.57076 4.98435 7.45426L4.98435 1.07309ZM18.1287 20.4787C20.2787 20.4787 23.1577 19.1814 23.1577 15.5627V15.5007C23.1577 15.4377 23.1137 15.3838 23.0515 15.3729C19.7275 14.7928 14.7297 15.518 14.7297 18.2597C14.7297 19.9324 16.6614 20.4787 18.1287 20.4787ZM33.6891 14.9385C33.6891 18.3195 34.7646 20.2994 37.0417 20.2994C39.199 20.2994 40.341 18.1672 40.341 14.969C40.341 11.7707 39.199 9.60808 37.0417 9.60808C34.7646 9.60808 33.6891 11.6489 33.6891 14.9385Z" fill="#040404"/>
<path d="M14.7297 12.6746L-9.27033 12.6746V12.7851L-9.26932 12.8956L14.7297 12.6746ZM23.0379 12.5527L47.0379 12.5528L23.0379 12.5527ZM18.5041 8.97392L20.3729 32.901H20.3729L18.5041 8.97392ZM19.2549 6.17454L17.0415 -17.7232H17.0415L19.2549 6.17454ZM27.1726 13.4056L3.17261 13.4056L27.1726 13.4056ZM27.1546 14.4967L3.15928 14.0249L3.159 14.039L3.15874 14.0532L27.1546 14.4967ZM27.1546 14.4991L51.1482 15.0544L51.1495 14.9985L51.1505 14.9426L27.1546 14.4991ZM27.1546 14.4993L51.1402 15.3308L51.145 15.1927L51.1482 15.0546L27.1546 14.4993ZM27.1546 14.4995L3.169 13.6679L3.16183 13.8748L3.15822 14.0817L27.1546 14.4995ZM27.1546 14.4998L51.1479 15.0678L51.1496 14.9927L51.1509 14.9176L27.1546 14.4998ZM27.1546 14.5004L3.16129 13.9324L3.16015 13.9805L3.1592 14.0287L27.1546 14.5004ZM27.1112 18.2939L3.11118 18.2939L27.1112 18.2939ZM38.0304 23.5281L38.0304 47.5281L38.0304 23.5281ZM16.9001 23.3964L16.9001 47.3964L16.9001 23.3964ZM10.5491 18.5837L34.5491 18.5837L10.5491 18.5837ZM10.5685 16.6136L-13.4287 16.246V16.2461L10.5685 16.6136ZM10.5949 13.5884L-13.4051 13.5884L10.5949 13.5884ZM4.98435 14.4969L-19.0157 14.4969L4.98435 14.4969ZM23.1577 15.5627L-0.842272 15.5627L23.1577 15.5627ZM18.1287 20.4787L18.1287 44.4787L18.1287 20.4787ZM37.0417 20.2994L37.0417 44.2994L37.0417 20.2994ZM33.6891 14.9385L57.6891 14.9385L33.6891 14.9385ZM37.0417 9.60808L37.0417 33.6081L37.0417 9.60808ZM23.1577 15.5007L47.1577 15.5007L23.1577 15.5007ZM23.0515 15.3729L27.1776 -8.26974L23.0515 15.3729ZM0.980457 22.9808L0.980461 -1.01923L0.980457 22.9808ZM0.849609 22.8501L24.8496 22.8501L0.849609 22.8501ZM4.98434 22.8501L28.9843 22.8501L4.98434 22.8501ZM4.8535 22.9808L4.85349 46.9808L4.8535 22.9808ZM29.8351 28.7837L29.8351 52.7837L29.8351 28.7837ZM29.7042 28.653L53.7042 28.653L29.7042 28.653ZM33.839 28.653L57.839 28.653L33.839 28.653ZM33.7081 28.7837L33.7081 4.78367L33.7081 28.7837ZM27.1127 17.5775L3.11269 17.5771L27.1127 17.5775ZM24.0437 20.7613L4.04732 34.0333H4.04732L24.0437 20.7613ZM23.8273 20.7445L41.6341 36.8354V36.8354L23.8273 20.7445ZM16.046 7.00633L-7.95399 7.00632L16.046 7.00633ZM16.1186 6.89188L6.54698 -15.1168H6.54698L16.1186 6.89188ZM27.1112 17.5811L51.1112 17.5811L27.1112 17.5811ZM29.7042 23.6406L5.70422 23.6406L29.7042 23.6406ZM29.5741 23.5086L30.1274 -0.48498L29.5741 23.5086ZM16.2248 9.50225L8.29073 -13.1484L16.2248 9.50225ZM16.046 9.37674L40.046 9.37674L16.046 9.37674ZM33.839 7.60261L57.839 7.60261L33.839 7.60261ZM34.0549 7.70676L19.4856 -11.3651L34.0549 7.70676ZM4.98435 7.45426L28.9843 7.45427L4.98435 7.45426ZM5.21421 7.55323L21.1657 25.485L5.21421 7.55323ZM34.7578 22.5808L48.5745 2.95684L34.7578 22.5808ZM33.839 22.987L9.83895 22.987L33.839 22.987ZM22.8788 12.7926L27.7911 -10.6993L22.8788 12.7926ZM23.0379 12.6639L-0.962118 12.6639L23.0379 12.6639ZM4.8535 0.942383L4.8535 24.9424L4.8535 0.942383ZM4.98435 1.07309L-19.0157 1.07309L4.98435 1.07309ZM29.7042 6.87559L5.70422 6.87558L29.7042 6.87559ZM29.8351 6.74488L29.8351 -17.2551L29.8351 6.74488ZM33.7081 6.74488L33.7081 30.7449L33.7081 6.74488ZM33.839 6.87559L9.83895 6.87558L33.839 6.87559ZM0.980461 0.942383L0.980465 -23.0576L0.980461 0.942383ZM0.849613 1.07309L-23.1504 1.07309L0.849613 1.07309ZM14.9296 13.4907L25.5172 35.029L14.9296 13.4907ZM14.7361 13.3734L-9.26288 13.5944V13.5944L14.7361 13.3734ZM29.5471 20.8011L23.8589 44.1173L29.5471 20.8011ZM29.7042 20.6758L53.7042 20.6758L29.7042 20.6758ZM4.85351 -23.0576H0.980465L0.980457 24.9424H4.8535L4.85351 -23.0576ZM28.9843 7.45427V1.0731L-19.0157 1.07309V7.45426L28.9843 7.45427ZM8.56779 -17.7524C3.36337 -17.7524 -4.1539 -16.235 -10.7373 -10.3785L21.1657 25.485C16.9367 29.247 12.1004 30.2476 8.56779 30.2476L8.56779 -17.7524ZM38.7297 12.6746C38.7297 6.19918 36.8326 -1.99639 30.4036 -8.68698C23.8546 -15.5024 15.4913 -17.7524 8.56779 -17.7524L8.56779 30.2476C5.50938 30.2476 0.226965 29.1856 -4.20735 24.5708C-8.5217 20.0809 -9.27034 15.0989 -9.27033 12.6746L38.7297 12.6746ZM27.7911 -10.6993C21.9688 -11.9168 12.9215 -12.2652 4.34193 -8.0477L25.5172 35.029C23.1366 36.1993 21.2814 36.4117 20.5421 36.4648C19.6975 36.5256 18.8839 36.4763 17.9665 36.2845L27.7911 -10.6993ZM-0.962118 12.5527V12.6639L47.0379 12.6639V12.5528L-0.962118 12.5527ZM20.3729 32.901C20.6611 32.8785 19.7399 32.9734 18.4613 32.8949C17.2046 32.8178 14.424 32.5224 11.1707 30.9876C7.53586 29.2728 3.97038 26.3023 1.59279 22.0254C-0.61645 18.0514 -0.962118 14.4604 -0.962118 12.5527L47.0379 12.5528C47.0379 8.7362 46.3387 3.72673 43.5459 -1.29707C40.5847 -6.6237 36.2056 -10.2753 31.6505 -12.4241C24.1811 -15.9479 16.7978 -14.9659 16.6353 -14.9532L20.3729 32.901ZM24.1589 32.1529C23.9392 32.2298 23.6237 32.3345 23.2044 32.4433C22.9837 32.5005 22.6547 32.5797 22.234 32.6583C21.8284 32.734 21.1899 32.8372 20.3729 32.901L16.6353 -14.9532C12.4486 -14.6262 8.98292 -13.3908 8.29073 -13.1484L24.1589 32.1529ZM-7.95399 7.00632L-7.95399 9.37673L40.046 9.37674V7.00633L-7.95399 7.00632ZM17.0415 -17.7232C15.1335 -17.5465 13.3422 -17.1767 12.3505 -16.9535C11.7572 -16.82 9.15848 -16.2526 6.54698 -15.1168L25.6903 28.9006C24.9027 29.2431 24.2865 29.4556 24.0069 29.5491C23.6813 29.658 23.4362 29.7297 23.3044 29.7671C23.0475 29.84 22.9059 29.8715 22.8871 29.8757C22.856 29.8827 22.7969 29.8957 22.6808 29.9162C22.6491 29.9218 22.1898 30.0054 21.4684 30.0723L17.0415 -17.7232ZM51.1726 13.4056C51.1726 7.7206 49.8887 -1.91994 41.9371 -9.57936C33.7013 -17.5126 23.5685 -18.3277 17.0415 -17.7232L21.4683 30.0723C20.4701 30.1647 14.2961 30.4421 8.63695 24.9908C3.26208 19.8134 3.17261 14.0444 3.17261 13.4056L51.1726 13.4056ZM51.15 14.9685C51.1566 14.6307 51.1726 13.8883 51.1726 13.4056L3.17261 13.4056C3.17261 13.2989 3.1736 13.2394 3.17317 13.2734C3.17292 13.2927 3.1723 13.3352 3.17101 13.4097C3.16836 13.5623 3.1645 13.7594 3.15928 14.0249L51.15 14.9685ZM51.1505 14.9426L51.1505 14.9402L3.15874 14.0532L3.1587 14.0555L51.1505 14.9426ZM51.1482 15.0546L51.1482 15.0544L3.16103 13.9437L3.16102 13.9439L51.1482 15.0546ZM51.1402 15.331L51.1402 15.3308L3.16901 13.6677L3.169 13.6679L51.1402 15.331ZM51.1509 14.9176L51.151 14.9173L3.15822 14.0817L3.15822 14.0821L51.1509 14.9176ZM51.1478 15.0684L51.1479 15.0678L3.1613 13.9318L3.16129 13.9324L51.1478 15.0684ZM51.1127 17.578C51.1127 16.9139 51.131 15.9373 51.1499 14.9722L3.1592 14.0287C3.14291 14.8575 3.11272 16.3454 3.11269 17.5771L51.1127 17.578ZM51.1112 18.294V17.5811L3.11118 17.5811L3.11118 18.2939L51.1112 18.294ZM35.2352 -2.5151C37.5283 -1.95568 40.9938 -0.649027 44.2924 2.45715C47.9882 5.93726 51.1112 11.4746 51.1112 18.294L3.11118 18.2939C3.11118 36.1844 18.2619 42.7519 23.8589 44.1173L35.2352 -2.5151ZM5.70422 6.87558L5.70422 20.6757L53.7042 20.6758L53.7042 6.87559L5.70422 6.87558ZM33.7081 -17.2551L29.8351 -17.2551L29.8351 30.7449L33.7081 30.7449L33.7081 -17.2551ZM57.839 7.60261V6.87559L9.83895 6.87558L9.83895 7.60261L57.839 7.60261ZM38.0604 -17.6206C32.4674 -17.6206 25.8847 -16.2534 19.4856 -11.3651L48.6242 26.7786C47.4211 27.6977 45.5385 28.8382 43.0358 29.599C40.6286 30.3307 38.7141 30.3794 38.0604 30.3794L38.0604 -17.6206ZM68.6181 14.9385C68.6181 8.46076 66.9578 0.762078 61.8135 -5.9167C56.2928 -13.0841 47.7367 -17.6206 38.0604 -17.6206L38.0604 30.3794C32.2792 30.3794 27.0019 27.5486 23.7863 23.3738C20.9471 19.6877 20.6181 16.2686 20.6181 14.9385L68.6181 14.9385ZM38.0304 47.5281C47.5936 47.5281 56.114 43.0824 61.6658 35.9852C66.8859 29.3121 68.6181 21.558 68.6181 14.9385L20.6181 14.9385C20.6181 13.558 20.974 10.0988 23.8591 6.41069C27.0758 2.29855 32.3024 -0.471886 38.0304 -0.471885L38.0304 47.5281ZM20.9412 42.2048C27.1301 46.5622 33.5885 47.5281 38.0304 47.5281L38.0304 -0.471885C40.26 -0.471884 44.3885 0.00960064 48.5745 2.95684L20.9412 42.2048ZM57.839 28.653V22.9871L9.83895 22.987L9.83895 28.653L57.839 28.653ZM29.8351 52.7837H33.7081L33.7081 4.78367L29.8351 4.78367L29.8351 52.7837ZM5.70422 23.6406L5.70422 28.653L53.7042 28.653V23.6406L5.70422 23.6406ZM4.04732 34.0333C10.7196 44.0862 21.5802 47.3307 29.0208 47.5023L30.1274 -0.48498C32.5412 -0.429315 34.7368 0.123826 36.7153 1.05663C38.6438 1.96585 41.621 3.84463 44.0401 7.48941L4.04732 34.0333ZM16.9001 47.3964C25.7516 47.3964 34.98 44.199 41.6341 36.8354L6.02053 4.6535C9.89586 0.364932 14.4659 -0.603638 16.9001 -0.603638L16.9001 47.3964ZM-13.4509 18.5837C-13.4509 28.7508 -8.20289 36.8343 -1.60578 41.5851C4.4673 45.9585 11.2639 47.3964 16.9001 47.3964L16.9001 -0.603638C19.0552 -0.603637 22.6763 -0.0795424 26.4442 2.63382C30.7361 5.72456 34.5491 11.4017 34.5491 18.5837L-13.4509 18.5837ZM-13.4287 16.2461C-13.4386 16.8965 -13.4509 17.6718 -13.4509 18.5837L34.5491 18.5837C34.5491 18.0886 34.5553 17.6589 34.5657 16.9811L-13.4287 16.2461ZM-13.4051 13.5884C-13.4051 14.6988 -13.4166 15.4564 -13.4287 16.246L34.5657 16.9811C34.5786 16.1401 34.5949 15.0815 34.5949 13.5884L-13.4051 13.5884ZM7.8511 33.6286C5.07041 33.6286 1.25293 33.0323 -2.66451 30.7969C-6.6458 28.5251 -9.29924 25.3761 -10.9073 22.4843C-12.4029 19.7949 -12.9466 17.4412 -13.1658 16.174C-13.3931 14.8601 -13.4051 13.9113 -13.4051 13.5884L34.5949 13.5884C34.5949 11.6115 34.5438 5.45222 31.0427 -0.84363C29.0302 -4.46264 25.8316 -8.20748 21.1247 -10.8933C16.4816 -13.5427 11.758 -14.3714 7.8511 -14.3714L7.8511 33.6286ZM28.9843 14.4969C28.9843 14.6447 28.9812 15.327 28.8183 16.3528C28.6661 17.3109 28.2616 19.3124 27.0705 21.712C25.814 24.2434 23.5033 27.5447 19.5445 30.1213C15.4867 32.7622 11.2515 33.6286 7.8511 33.6286L7.8511 -14.3714C3.32447 -14.3714 -1.83215 -13.2369 -6.63862 -10.1086C-11.3461 -7.04482 -14.2328 -3.03704 -15.9244 0.370988C-18.9036 6.37315 -19.0157 12.1957 -19.0157 14.4969L28.9843 14.4969ZM28.9843 22.8501L28.9843 14.4969L-19.0157 14.4969L-19.0157 22.8501L28.9843 22.8501ZM0.980453 46.9808H4.85349L4.8535 -1.01923L0.980461 -1.01923L0.980453 46.9808ZM-23.1504 1.07309L-23.1504 22.8501L24.8496 22.8501L24.8496 1.0731L-23.1504 1.07309ZM-0.842272 15.5627C-0.842271 10.1427 1.7137 4.36225 6.62207 0.505802C10.654 -2.66206 14.9286 -3.52134 18.1287 -3.52134L18.1287 44.4787C23.4788 44.4787 30.2679 42.9707 36.2769 38.2496C43.1623 32.8398 47.1577 24.6013 47.1577 15.5627L-0.842272 15.5627ZM-0.842272 15.5007V15.5627L47.1577 15.5627V15.5007L-0.842272 15.5007ZM38.7297 18.2597C38.7297 25.913 34.8769 31.6369 31.1479 34.8213C27.98 37.5265 24.9927 38.4446 23.9253 38.7341C21.7462 39.325 20.2327 39.2437 18.9254 39.0156L27.1776 -8.26974C22.5463 -9.07801 16.8719 -9.08675 11.3628 -7.59284C8.63053 -6.85192 4.186 -5.27472 -0.0229109 -1.6805C-4.79279 2.39276 -9.27033 9.23544 -9.27034 18.2596L38.7297 18.2597ZM18.1287 -3.52134C19.7312 -3.52134 23.0548 -3.31804 26.9301 -1.30783C29.0568 -0.204633 32.069 1.8314 34.6025 5.38832C37.3219 9.20613 38.7297 13.7345 38.7297 18.2597L-9.27034 18.2596C-9.27034 30.6181 -1.23199 38.1573 4.82782 41.3007C10.0358 44.0023 15.0589 44.4787 18.1287 44.4787L18.1287 -3.52134ZM37.0417 -3.70061C40.0432 -3.7006 43.729 -3.01629 47.3839 -0.946487C51.0331 1.12009 53.5137 3.92339 55.0622 6.49047C57.7874 11.0083 57.6891 14.7889 57.6891 14.9385L9.68914 14.9385C9.68914 18.4692 10.1286 24.9302 13.9608 31.2832C18.8342 39.3622 27.4463 44.2994 37.0417 44.2994L37.0417 -3.70061ZM16.341 14.969C16.341 14.2554 16.3817 10.7511 18.8764 6.55936C20.2477 4.25526 22.5075 1.53473 25.9872 -0.583666C29.5679 -2.76352 33.457 -3.70061 37.0417 -3.70061L37.0417 44.2994C47.652 44.2994 55.8191 38.3415 60.1242 31.1077C63.7292 25.0503 64.341 18.8808 64.341 14.969L16.341 14.969ZM37.0417 33.6081C33.3909 33.6081 29.4671 32.639 25.8836 30.4325C22.4115 28.2945 20.1775 25.5676 18.8328 23.2897C16.384 19.1416 16.341 15.688 16.341 14.969L64.341 14.969C64.341 11.0517 63.7269 4.91767 60.1679 -1.11135C55.935 -8.28179 47.7978 -14.3919 37.0417 -14.3919L37.0417 33.6081ZM57.6891 14.9385C57.6891 15.2449 57.7518 18.9589 55.0848 23.3984C53.581 25.9018 51.1551 28.6888 47.5437 30.7707C43.9013 32.8706 40.1694 33.6081 37.0417 33.6081L37.0417 -14.3919C27.1844 -14.3919 18.6775 -9.20849 13.9382 -1.31907C10.1643 4.9633 9.68914 11.3425 9.68914 14.9385L57.6891 14.9385ZM38.7351 13.1525L38.7286 12.4536L-9.26932 12.8956L-9.26288 13.5944L38.7351 13.1525ZM47.1577 15.5007C47.1577 4.12047 39.0663 -6.19493 27.1776 -8.26974L18.9254 39.0156C7.16106 36.9625 -0.842274 26.755 -0.842272 15.5007L47.1577 15.5007ZM0.980461 -1.01923C14.1393 -1.01923 24.8496 9.64367 24.8496 22.8501L-23.1504 22.8501C-23.1504 36.2008 -12.3229 46.9808 0.980453 46.9808L0.980461 -1.01923ZM-19.0157 22.8501C-19.0157 9.64366 -8.3053 -1.01923 4.8535 -1.01923L4.85349 46.9808C18.1568 46.9808 28.9843 36.2008 28.9843 22.8501L-19.0157 22.8501ZM29.8351 4.78367C42.9939 4.78367 53.7042 15.4466 53.7042 28.653L5.70422 28.653C5.70421 42.0037 16.5317 52.7837 29.8351 52.7837L29.8351 4.78367ZM9.83895 28.653C9.83895 15.4466 20.5493 4.78367 33.7081 4.78367L33.7081 52.7837C47.0114 52.7837 57.8389 42.0037 57.839 28.653L9.83895 28.653ZM3.11269 17.5771C3.11282 10.914 5.87339 4.67362 10.5408 0.218525L43.6831 34.9401C48.3514 30.4841 51.1126 24.2425 51.1127 17.578L3.11269 17.5771ZM44.0401 7.48941C35.4605 -5.4373 16.741 -7.21013 6.02053 4.6535L41.6341 36.8354C31.0331 48.5668 12.5284 46.8115 4.04732 34.0333L44.0401 7.48941ZM40.046 7.00633C40.046 15.6705 35.152 24.7856 25.6903 28.9006L6.54698 -15.1168C-3.00564 -10.9624 -7.95399 -1.75684 -7.95399 7.00632L40.046 7.00633ZM10.5408 0.218525C5.79641 4.74711 3.11118 11.0206 3.11118 17.5811L51.1112 17.5811C51.1112 24.1402 48.4265 30.4124 43.6831 34.9401L10.5408 0.218525ZM53.7042 23.6406C53.7042 10.2638 42.9681 -0.188867 30.1274 -0.48498L29.0208 47.5023C16.3242 47.2095 5.70421 36.8734 5.70422 23.6406L53.7042 23.6406ZM8.29073 -13.1484C23.482 -18.4696 40.046 -7.41171 40.046 9.37674L-7.95399 9.37673C-7.95399 26.3487 8.79434 37.5348 24.1589 32.1529L8.29073 -13.1484ZM9.83895 7.60261C9.83895 28.4697 33.4481 38.3719 48.6242 26.7786L19.4856 -11.3651C34.4869 -22.8248 57.839 -13.0446 57.839 7.60261L9.83895 7.60261ZM-19.0157 7.45426C-19.0157 29.7464 6.70537 38.3485 21.1657 25.485L-10.7373 -10.3785C3.54886 -23.0871 28.9844 -14.6049 28.9843 7.45427L-19.0157 7.45426ZM48.5745 2.95684C40.4492 -2.76393 31.2037 -2.28151 24.7933 0.438468C18.2078 3.23268 9.83895 10.7177 9.83895 22.987L57.839 22.9871C57.8389 34.83 49.7551 41.9892 43.5419 44.6254C37.5036 47.1875 28.7176 47.68 20.9412 42.2048L48.5745 2.95684ZM17.9665 36.2845C32.8153 39.3894 47.0379 28.1225 47.0379 12.6639L-0.962118 12.6639C-0.962115 -2.62748 13.1062 -13.77 27.7911 -10.6993L17.9665 36.2845ZM4.8535 24.9424C-8.30534 24.9424 -19.0157 14.2795 -19.0157 1.07309L28.9843 1.0731C28.9844 -12.2776 18.1569 -23.0576 4.85351 -23.0576L4.8535 24.9424ZM53.7042 6.87559C53.7042 20.082 42.9939 30.7449 29.8351 30.7449L29.8351 -17.2551C16.5317 -17.2551 5.70422 -6.47519 5.70422 6.87558L53.7042 6.87559ZM33.7081 30.7449C20.5493 30.7449 9.83895 20.082 9.83895 6.87558L57.839 6.87559C57.839 -6.47518 47.0114 -17.2551 33.7081 -17.2551L33.7081 30.7449ZM0.980465 -23.0576C-12.3229 -23.0576 -23.1504 -12.2777 -23.1504 1.07309L24.8496 1.0731C24.8496 14.2795 14.1392 24.9424 0.980457 24.9424L0.980465 -23.0576ZM4.34193 -8.0477C19.5912 -15.5438 38.5679 -5.0031 38.7351 13.1524L-9.26288 13.5944C-9.09389 31.946 10.0919 42.6117 25.5172 35.029L4.34193 -8.0477ZM23.8589 44.1173C39.5706 47.9503 53.7042 35.7797 53.7042 20.6758L5.70422 20.6757C5.70422 5.73778 19.6849 -6.3087 35.2352 -2.5151L23.8589 44.1173Z" fill="#040404" mask="url(#path-1-inside-1_1278_80769)"/>
</svg>
